<?xml version="1.0" ?><svg viewBox="0 0 32 32" xmlns="http://www.w3.org/2000/svg"><title/><g id="sosis"><path d="M9.85,25.34a1,1,0,0,1-.77-1.64,4.14,4.14,0,0,1,1.48-1.11h0a23.14,23.14,0,0,0,6.34-4.1A1,1,0,0,1,18.26,20a29.77,29.77,0,0,1-8,5.3A1,1,0,0,1,9.85,25.34Z"/><path d="M8.07,27.28l0-.14a3,3,0,0,1-.09-.34,3.18,3.18,0,0,1,0-1.72l-.67-.28a1,1,0,0,0-1.33.49,1,1,0,0,0,.3,1.18,1,1,0,0,0,.21,2l.19,0,.46-.11L7,28.4A1,1,0,0,0,8.65,29.6c.18-.24.35-.5.52-.75A3.14,3.14,0,0,1,8.07,27.28Z"/><path d="M25.09,7.94a3.63,3.63,0,0,1,.85-.11,3.44,3.44,0,0,1,1,.13l.24.07.12,0a3.18,3.18,0,0,1,1.6,1.11c.25-.17.5-.34.75-.52A1,1,0,0,0,28.4,7l-.08.05c0-.15.07-.31.11-.46a1,1,0,0,0-2-.41,1,1,0,0,0-1.18-.3,1,1,0,0,0-.49,1.33C24.9,7.48,25,7.71,25.09,7.94Z"/><path d="M4.35,20.13l0-.11a2.43,2.43,0,0,1-.08-.28,2.61,2.61,0,0,1,0-1.41l-.55-.23a.82.82,0,0,0-1.09.41.81.81,0,0,0,.25,1A.82.82,0,0,0,3,21.1l.16,0L3.55,21l0,.06a.82.82,0,0,0,1.32,1c.15-.2.29-.41.43-.61A2.58,2.58,0,0,1,4.35,20.13Z"/><path d="M18.34,4.24a3,3,0,0,1,.7-.09,2.82,2.82,0,0,1,.78.11l.19.06.1,0a2.61,2.61,0,0,1,1.31.91L22,4.83a.82.82,0,0,0-1-1.32l-.06,0c0-.13.06-.25.09-.38a.82.82,0,0,0-1.61-.34.81.81,0,0,0-1-.25.82.82,0,0,0-.41,1.09C18.18,3.86,18.26,4.05,18.34,4.24Z"/><path d="M28.92,10a2.85,2.85,0,0,0-1.75-1.58l-.15,0-.19-.05a3.34,3.34,0,0,0-3.12.73,4.16,4.16,0,0,0-1.12,1.49,23.13,23.13,0,0,1-4.1,6.33c-.5.55-1,1.08-1.57,1.57a23.17,23.17,0,0,1-6.35,4.11,4.13,4.13,0,0,0-1.47,1.1,3.3,3.3,0,0,0-.76,3,2.55,2.55,0,0,0,.08.29l0,.15A2.85,2.85,0,0,0,10,28.92a3.68,3.68,0,0,0,1.55.33,4.31,4.31,0,0,0,1.73-.37A30.08,30.08,0,0,0,28.88,13.31,4,4,0,0,0,28.92,10Z"/><path d="M21.48,6A2.34,2.34,0,0,0,20,4.67l-.13,0-.15,0a2.74,2.74,0,0,0-2.56.6,3.42,3.42,0,0,0-.92,1.23,19,19,0,0,1-3.37,5.21c-.41.45-.84.88-1.29,1.29a19,19,0,0,1-5.22,3.38,3.4,3.4,0,0,0-1.21.9,2.71,2.71,0,0,0-.63,2.49,2.1,2.1,0,0,0,.07.24l0,.12A2.34,2.34,0,0,0,6,21.48a3,3,0,0,0,1.27.27,3.54,3.54,0,0,0,1.42-.3A24.72,24.72,0,0,0,21.45,8.66,3.29,3.29,0,0,0,21.48,6Z"/></g></svg>