<?xml version="1.0" ?><svg viewBox="0 0 512 512" xmlns="http://www.w3.org/2000/svg"><g id="Mortar_and_Pestle"><path d="M370.1021,67.9648a10,10,0,0,0-8.0875-4.1181H330.6011a9.9992,9.9992,0,0,0-8.7593,5.1758L265.7886,170.7954a10,10,0,0,0,8.7593,14.8242h54.5063a10,10,0,0,0,9.5137-6.9189l32.96-101.773A10.0011,10.0011,0,0,0,370.1021,67.9648Z"/><path d="M339.4219,386.8746c29.0416-29.683,56.8613-77.8995,56.8613-125.1212a164.6672,164.6672,0,0,0-8.7056-52.9956,10,10,0,0,0-9.47-6.7886H133.8926a10,10,0,0,0-9.47,6.7886,164.6672,164.6672,0,0,0-8.7056,52.9956c0,47.2217,27.82,95.4382,56.8613,125.1212l-19.396,47.4984a10,10,0,0,0,9.2578,13.78H349.56a10,10,0,0,0,9.2578-13.78Zm-27.5972-16.1988a8.5,8.5,0,0,1-6.0142-14.5069c17.336-17.3569,32.1407-41.2641,39.6026-63.9521a8.5,8.5,0,0,1,16.1494,5.3115c-8.2534,25.0928-24.5986,51.5059-43.7236,70.6543A8.4742,8.4742,0,0,1,311.8247,370.6758Z"/></g></svg>