<?xml version="1.0" ?><svg viewBox="0 0 512 512" xmlns="http://www.w3.org/2000/svg"><g data-name="Squeeze_Sauce_ Bottle" id="Squeeze_Sauce__Bottle"><path d="M243.231,104.6748h25.538a10,10,0,0,0,9.95-11.0024l-5.1045-50.6641a10,10,0,0,0-9.95-8.9976H248.3354a10,10,0,0,0-9.95,8.9976l-5.1045,50.6641a10,10,0,0,0,9.95,11.0024Z"/><rect height="59.519" rx="10" width="126.1377" x="192.9312" y="119.4678"/><path d="M343.8931,320.61a77.6268,77.6268,0,0,0,16.3745-47.8667,78.6273,78.6273,0,0,0-78.5386-78.5381H230.271a78.6277,78.6277,0,0,0-78.5386,78.5386,77.6229,77.6229,0,0,0,16.3745,47.8657,25.3348,25.3348,0,0,1,0,30.9751,77.6252,77.6252,0,0,0-16.3745,47.8662,78.6278,78.6278,0,0,0,78.5386,78.5386h51.458a78.6278,78.6278,0,0,0,78.5386-78.5386,77.6227,77.6227,0,0,0-16.3745-47.8657A25.3348,25.3348,0,0,1,343.8931,320.61ZM275.729,451.4893a8.5,8.5,0,0,1,0-17,40.0842,40.0842,0,0,0,40.0386-40.0386,8.5,8.5,0,0,1,17,0A57.1032,57.1032,0,0,1,275.729,451.4893Z"/></g></svg>